<svg xmlns="http://www.w3.org/2000/svg" aria-hidden="true" style="position:absolute;width:0;height:0;overflow:hidden"><defs>
<symbol id="icon-accessibility" viewBox="0 0 32 32"><path d="M13 3a3 3 0 1 1 6 0 3 3 0 0 1-6 0z"/><path d="m20 10 10.3-4.443-.743-1.857L17 8h-2L2.443 3.7 1.7 5.557 12 10v8L7.898 31.268l1.87.709L15.572 19h.857l5.804 12.977 1.87-.709L20.001 18z"/></symbol>
<symbol id="icon-hammer" viewBox="0 0 32 32"><path d="m31.562 25.905-9.423-9.423a1.505 1.505 0 0 0-2.121 0l-.707.707-5.75-5.75L23 2H13L8.561 6.439 8.122 6H6.001v2.121l.439.439-6.439 6.439 5 5 6.439-6.439 5.75 5.75-.707.707a1.505 1.505 0 0 0 0 2.121l9.423 9.423a1.505 1.505 0 0 0 2.121 0l3.535-3.535a1.505 1.505 0 0 0 0-2.121z"/></symbol>
<symbol id="icon-keyboard" viewBox="0 0 36 32"><path d="M34 4H2C.9 4 0 4.9 0 6v20c0 1.1.9 2 2 2h32c1.1 0 2-.9 2-2V6c0-1.1-.9-2-2-2zM20 8h4v4h-4V8zm6 6v4h-4v-4h4zM14 8h4v4h-4V8zm6 6v4h-4v-4h4zM8 8h4v4H8V8zm6 6v4h-4v-4h4zM4 8h2v4H4V8zm0 6h4v4H4v-4zm2 10H4v-4h2v4zm18 0H8v-4h16v4zm8 0h-6v-4h6v4zm0-6h-4v-4h4v4zm0-6h-6V8h6v4z"/></symbol>
<symbol id="icon-display" viewBox="0 0 32 32"><path d="M0 2v20h32V2H0zm30 18H2V4h28v16zm-9 4H11l-1 4-2 2h16l-2-2z"/></symbol>
<symbol id="icon-library" viewBox="0 0 34 32"><path d="M32 30v-2h-2V16h2v-2h-6v2h2v12h-6V16h2v-2h-6v2h2v12h-6V16h2v-2h-6v2h2v12H6V16h2v-2H2v2h2v12H2v2H0v2h34v-2h-2zM16 0h2l16 10v2H0v-2L16 0z"/></symbol>
<symbol id="icon-user" viewBox="0 0 32 32"><path d="M18 22.082v-1.649c2.203-1.241 4-4.337 4-7.432 0-4.971 0-9-6-9s-6 4.029-6 9c0 3.096 1.797 6.191 4 7.432v1.649C7.216 22.637 2 25.97 2 30h28c0-4.03-5.216-7.364-12-7.918z"/></symbol>
<symbol id="icon-lanyrd" viewBox="0 0 32 32"><path d="M29 0H3C1.35 0 0 1.35 0 3v26c0 1.65 1.35 3 3 3h26c1.65 0 3-1.35 3-3V3c0-1.65-1.35-3-3-3zm-3.3 24.025-10.887 3.563c-2.488.813-2.738.681-3.863-2.8L8.2 16.269c-.656-2.019-2.656-7.456-2.994-8.5-.625-1.938-.625-2.044 3.031-3.231 2.862-.938 2.981-.906 4.019 2.325.838 2.6 1.375 4.7 2.238 7.356l2.344 7.25 7.488-2.45c1.475-.488 1.969-.462 2.387 1.356l.3 1.375c.35 1.594-.456 2-1.313 2.275z"/></symbol>
<symbol id="icon-github" viewBox="0 0 32 32"><path d="M16 .395c-8.836 0-16 7.163-16 16 0 7.069 4.585 13.067 10.942 15.182.8.148 1.094-.347 1.094-.77 0-.381-.015-1.642-.022-2.979-4.452.968-5.391-1.888-5.391-1.888-.728-1.849-1.776-2.341-1.776-2.341-1.452-.993.11-.973.11-.973 1.606.113 2.452 1.649 2.452 1.649 1.427 2.446 3.743 1.739 4.656 1.33.143-1.034.558-1.74 1.016-2.14-3.554-.404-7.29-1.777-7.29-7.907 0-1.747.625-3.174 1.649-4.295-.166-.403-.714-2.03.155-4.234 0 0 1.344-.43 4.401 1.64a15.353 15.353 0 0 1 4.005-.539c1.359.006 2.729.184 4.008.539 3.054-2.07 4.395-1.64 4.395-1.64.871 2.204.323 3.831.157 4.234 1.026 1.12 1.647 2.548 1.647 4.295 0 6.145-3.743 7.498-7.306 7.895.574.497 1.085 1.47 1.085 2.963 0 2.141-.019 3.864-.019 4.391 0 .426.288.925 1.099.768C27.421 29.457 32 23.462 32 16.395c0-8.837-7.164-16-16-16z"/></symbol>
<symbol id="icon-location" viewBox="0 0 32 32"><path d="M16 0C10.477 0 6 4.477 6 10c0 10 10 22 10 22s10-12 10-22c0-5.523-4.477-10-10-10zm0 16a6 6 0 1 1 0-12 6 6 0 0 1 0 12z"/></symbol>
<symbol id="icon-linkedin" viewBox="0 0 32 32"><path d="M29 0H3C1.35 0 0 1.35 0 3v26c0 1.65 1.35 3 3 3h26c1.65 0 3-1.35 3-3V3c0-1.65-1.35-3-3-3zM12 26H8V12h4v14zm-2-16c-1.106 0-2-.894-2-2s.894-2 2-2c1.106 0 2 .894 2 2s-.894 2-2 2zm16 16h-4v-8c0-1.106-.894-2-2-2s-2 .894-2 2v8h-4V12h4v2.481C18.825 13.35 20.087 12 21.5 12c2.488 0 4.5 2.238 4.5 5v9z"/></symbol>
<symbol id="icon-office" viewBox="0 0 32 32"><path d="M0 32h16V0H0v32zM10 4h4v4h-4V4zm0 8h4v4h-4v-4zm0 8h4v4h-4v-4zM2 4h4v4H2V4zm0 8h4v4H2v-4zm0 8h4v4H2v-4zm16-10h14v2H18zm0 22h4v-8h6v8h4V14H18z"/></symbol>
<symbol id="icon-phone" viewBox="0 0 32 32"><path d="M22 20c-2 2-2 4-4 4s-4-2-6-4-4-4-4-6 2-2 4-4-4-8-6-8-6 6-6 6c0 4 4.109 12.109 8 16s12 8 16 8c0 0 6-4 6-6s-6-8-8-6z"/></symbol>
<symbol id="icon-address-book" viewBox="0 0 32 32"><path d="M6 0v32h24V0H6zm12 8.01a3.99 3.99 0 1 1 0 7.98 3.99 3.99 0 0 1 0-7.98zM24 24H12v-2a4 4 0 0 1 4-4h4a4 4 0 0 1 4 4v2zM2 2h3v6H2V2zM2 10h3v6H2v-6zM2 18h3v6H2v-6zM2 26h3v6H2v-6z"/></symbol>
<symbol id="icon-envelop" viewBox="0 0 32 32"><path d="M29 4H3C1.35 4 0 5.35 0 7v20c0 1.65 1.35 3 3 3h26c1.65 0 3-1.35 3-3V7c0-1.65-1.35-3-3-3zM12.461 17.199 4 23.789V8.113l8.461 9.086zM5.512 8h20.976L16 15.875 5.512 8zm7.278 9.553L16 21l3.21-3.447L25.79 26H6.211l6.58-8.447zm6.749-.354L28 8.113v15.676l-8.461-6.59z"/></symbol>
<symbol id="icon-linkedin1" viewBox="0 0 32 32"><path d="M29 0H3C1.35 0 0 1.35 0 3v26c0 1.65 1.35 3 3 3h26c1.65 0 3-1.35 3-3V3c0-1.65-1.35-3-3-3zM12 26H8V12h4v14zm-2-16c-1.106 0-2-.894-2-2s.894-2 2-2c1.106 0 2 .894 2 2s-.894 2-2 2zm16 16h-4v-8c0-1.106-.894-2-2-2s-2 .894-2 2v8h-4V12h4v2.481C18.825 13.35 20.087 12 21.5 12c2.488 0 4.5 2.238 4.5 5v9z"/></symbol>
<symbol id="icon-user-plus" viewBox="0 0 32 32"><path d="M12 23c0-4.726 2.996-8.765 7.189-10.319C19.698 11.539 20 10.27 20 9c0-4.971 0-9-6-9S8 4.029 8 9c0 3.096 1.797 6.191 4 7.432v1.649c-6.784.555-12 3.888-12 7.918h12.416a10.962 10.962 0 0 1-.416-3z"/><path d="M23 14c-4.971 0-9 4.029-9 9s4.029 9 9 9 9-4.029 9-9-4.029-9-9-9zm5 10h-4v4h-2v-4h-4v-2h4v-4h2v4h4v2z"/></symbol>
<symbol id="icon-accessibility1" viewBox="0 0 32 32"><path d="M13 3a3 3 0 1 1 6 0 3 3 0 0 1-6 0z"/><path d="m20 10 10.3-4.443-.743-1.857L17 8h-2L2.443 3.7 1.7 5.557 12 10v8L7.898 31.268l1.87.709L15.572 19h.857l5.804 12.977 1.87-.709L20.001 18z"/></symbol></defs></svg>